<svg width="36" height="36" viewBox="0 0 36 36" fill="none" xmlns="http://www.w3.org/2000/svg">
<g clip-path="url(#clip0_14_103)">
<path d="M8.47968 14.7948C8.51616 13.541 9.37148 12.5688 9.7505 12.0997C10.1295 11.6306 9.51539 11.2732 9.7505 10.2491C10.1113 8.67808 11.9861 9.56047 11.9861 7.03113C11.9861 6.24459 12.1766 6.07691 12.1766 6.07691C12.1766 6.07691 10.77 3.03056 13.3218 2.02044C13.3218 2.02044 13.5488 0.726839 15.8674 0.147913C18.1862 -0.431012 20.2738 1.92461 18.7719 5.33828L18.6584 8.03328C18.8757 8.07235 19.0741 8.18028 19.2234 8.34065C19.3727 8.50101 19.4647 8.70502 19.4854 8.92163C19.6556 10.0635 21.1372 9.35279 21.2143 12.3154L8.47968 14.7948Z" fill="#DD6B20"/>
<path d="M13.867 10.7882C12.7157 11.1395 11.8118 11.0756 11.8118 10.0615C11.8118 9.11128 13.0056 8.60422 12.811 7.06707C12.6164 5.52993 12.9184 4.7873 13.4474 4.11854C13.9764 3.44979 14.7385 1.17402 16.6153 1.57726C18.4922 1.98052 18.7719 5.3283 18.7719 5.3283L17.7808 8.44452C17.7808 8.44452 18.9969 10.1054 18.6401 10.7103C18.2835 11.3152 13.867 10.7882 13.867 10.7882Z" fill="#9E450B"/>
<path d="M18.3645 8.58624C18.3645 8.58624 19.3131 8.60021 19.0699 9.80394C18.9837 10.2147 19.0405 10.642 19.231 11.0172C19.4214 11.3923 19.7345 11.6935 20.1198 11.8721" stroke="#9E450B" stroke-width="1.3023" stroke-linecap="round" stroke-linejoin="round"/>
<path d="M13.3217 2.88287C12.2678 4.10061 12.6752 5.31436 12.6752 5.31436" stroke="#9E450B" stroke-width="1.3023" stroke-linecap="round" stroke-linejoin="round"/>
<path d="M12.2983 9.32092C11.1531 9.89783 10.4863 11.0278 11.1997 12.1157C11.3456 12.3296 11.4418 12.5725 11.4814 12.8272C11.521 13.0818 11.503 13.342 11.4288 13.589" stroke="#9E450B" stroke-width="1.3023" stroke-linecap="round" stroke-linejoin="round"/>
<path d="M13.3218 2.02051C13.3218 2.02051 14.169 2.26205 14.4123 2.7791" stroke="#9E450B" stroke-width="1.3023" stroke-linecap="round" stroke-linejoin="round"/>
<path d="M15.0263 1.9446C15.0263 1.9446 16.9214 0.227786 18.2794 1.7849" stroke="#9E450B" stroke-width="1.3023" stroke-linecap="round" stroke-linejoin="round"/>
<path d="M19.3009 7.42643C19.3415 9.59041 17.8356 10.1374 17.1099 10.1813C15.4459 10.2392 13.9055 8.38465 13.3907 7.68196C13.3724 7.53623 13.3522 7.3885 13.3279 7.23678C12.3388 7.43641 11.9334 6.98924 11.8219 6.30251C11.7105 5.61579 12.5617 4.81926 13.6643 5.70362C14.698 5.00093 14.8419 4.02674 14.625 3.16035C14.8688 2.81524 15.2182 2.5559 15.6222 2.42016C16.0262 2.28441 16.4636 2.27936 16.8707 2.40575C18.026 2.73713 18.8307 4.29224 19.1489 5.9871C19.2213 6.3737 19.2686 6.76442 19.2908 7.15693C19.2948 7.24676 19.2989 7.33659 19.3009 7.42643Z" fill="#FEBD9D"/>
<path d="M17.5518 3.60752C17.5883 3.89499 18.3423 3.9409 18.6807 3.77321C19.0193 3.60553 17.4586 2.78705 17.5518 3.60752Z" fill="#DD6B20"/>
<path d="M15.2168 4.22442C15.1581 4.47994 15.8978 4.14456 16.1674 4.1246C16.437 4.10463 16.5727 3.98884 16.443 3.66345C16.3134 3.33806 15.3404 3.67543 15.2168 4.22442Z" fill="#DD6B20"/>
<path d="M16.6944 5.70566C16.8176 5.70566 16.9174 5.60735 16.9174 5.48607C16.9174 5.36479 16.8176 5.26648 16.6944 5.26648C16.5713 5.26648 16.4715 5.36479 16.4715 5.48607C16.4715 5.60735 16.5713 5.70566 16.6944 5.70566Z" fill="#9E450B"/>
<path d="M18.2693 5.15268C18.3925 5.15268 18.4922 5.05437 18.4922 4.93309C18.4922 4.81181 18.3925 4.7135 18.2693 4.7135C18.1462 4.7135 18.0463 4.81181 18.0463 4.93309C18.0463 5.05437 18.1462 5.15268 18.2693 5.15268Z" fill="#9E450B"/>
<path d="M17.5962 4.81531C17.5801 5.4701 17.9003 5.69568 17.9794 5.77153C18.1598 5.94521 18.5874 5.77153 18.3847 6.40835" stroke="#F4A789" stroke-width="1.3023" stroke-linecap="round" stroke-linejoin="round"/>
<path d="M16.8261 7.53824C17.114 7.25677 18.2064 7.31466 18.33 7.42645C18.4537 7.53824 18.2449 8.02534 17.7706 8.02534C17.2963 8.02534 16.6923 7.67199 16.8261 7.53824Z" fill="white" stroke="#F4A789" stroke-width="1.3023" stroke-linecap="round" stroke-linejoin="round"/>
<path d="M12.4442 6.37443C12.6955 6.0111 13.2184 6.13288 13.4272 6.31454C12.7523 6.20475 12.6894 6.94536 13.4474 6.74973" stroke="#F4A789" stroke-width="1.3023" stroke-linecap="round" stroke-linejoin="round"/>
<path d="M16.8991 7.04514C16.7918 7.35456 16.2303 7.44439 15.6405 7.24477C15.0507 7.04514 14.6616 6.64588 14.7669 6.33246C14.8723 6.01905 15.4358 5.9332 16.0236 6.13283C16.6114 6.33246 17.0046 6.73571 16.8991 7.04514Z" fill="#F4A789"/>
<path d="M19.2827 7.15295C19.005 7.20484 18.7739 7.15295 18.6746 7.00322C18.5064 6.75768 18.7152 6.32049 19.1489 5.98511C19.2184 6.37122 19.263 6.76128 19.2827 7.15295Z" fill="#F4A789"/>
<path d="M12.7238 7.42639C12.7234 7.52109 12.7517 7.61376 12.805 7.69262C12.8581 7.77146 12.9341 7.83292 13.0228 7.86916C13.1117 7.90539 13.2095 7.91477 13.3038 7.8961C13.398 7.87742 13.4845 7.83154 13.5522 7.76429C13.6199 7.69704 13.6658 7.61147 13.6839 7.51848C13.7021 7.42548 13.6918 7.32926 13.6542 7.24208C13.6167 7.15489 13.5536 7.08067 13.4731 7.02889C13.3926 6.97711 13.2983 6.95008 13.2022 6.95127C13.0751 6.95284 12.9537 7.00353 12.8643 7.0924C12.7748 7.18128 12.7244 7.30123 12.7238 7.42639Z" fill="#A7CAF0"/>
<path d="M32.2544 14.1718L29.891 17.1863C29.891 17.1863 26.7292 29.709 25.1381 30.7611C24.6346 31.0884 24.0572 31.2893 23.4565 31.346C22.8557 31.4027 22.2501 31.3136 21.6926 31.0865C21.6934 31.0792 21.6934 31.0718 21.6926 31.0645C21.6926 31.0345 20.2737 29.8946 20.5534 28.1719C20.5778 28.0122 23.7356 22.6361 25.0895 20.2685C26.1719 18.3601 27.4872 16.1801 27.4872 16.1801L32.2544 14.1718Z" fill="#FEBD9D"/>
<path d="M27.4893 16.1841C27.4893 16.1841 27.6738 13.3554 27.7386 13.038C27.8035 12.7205 29.7431 10.882 30.0188 10.7362C30.2944 10.5905 32.0132 11.0915 32.1531 11.2453C32.2929 11.399 32.1349 11.7643 31.6727 11.7364C31.2106 11.7084 31.6079 12.8104 31.6079 12.8104C31.6079 12.8104 32.3558 13.5889 32.2442 14.1718C32.2442 14.1718 29.3459 17.0486 29.3094 17.0386C29.2729 17.0286 27.4893 16.1841 27.4893 16.1841Z" fill="#FEBD9D"/>
<path d="M27.4893 16.1841C27.4893 16.1841 27.6738 13.3554 27.7386 13.038C27.8035 12.7205 29.7431 10.882 30.0188 10.7362C30.2944 10.5905 32.0132 11.0915 32.1531 11.2453C32.2929 11.399 32.1349 11.7643 31.6727 11.7364C31.2106 11.7084 31.6079 12.8104 31.6079 12.8104C31.6079 12.8104 32.3558 13.5889 32.2442 14.1718C32.2442 14.1718 29.3459 17.0486 29.3094 17.0386C29.2729 17.0286 27.4893 16.1841 27.4893 16.1841Z" fill="#FEBD9D"/>
<path d="M27.7386 13.038C27.7954 12.7145 29.7431 10.882 30.0249 10.7362C30.3067 10.5905 32.0193 11.0915 32.1592 11.2453C32.299 11.399 32.1409 11.7643 31.6788 11.7364" stroke="#F4A789" stroke-width="1.3023" stroke-linecap="round" stroke-linejoin="round"/>
<path d="M30.5092 11.8742C30.5356 11.8104 31.6179 11.4549 31.8024 11.5189C31.9868 11.5828 32.8725 13.038 32.9009 13.3275C32.9293 13.617 32.5078 14.8966 32.1247 14.7828C31.7416 14.669 32.1408 13.585 32.1408 13.585L30.5092 11.8742Z" fill="#FEBD9D" stroke="#F4A789" stroke-width="1.3023" stroke-linecap="round" stroke-linejoin="round"/>
<path d="M31.2572 14.3934C31.5692 14.5931 31.9341 14.1259 32.1408 13.5949L31.4436 13.028C31.4436 13.028 30.795 14.092 31.2572 14.3934Z" fill="#FEBD9D" stroke="#F4A789" stroke-width="1.3023" stroke-linecap="round" stroke-linejoin="round"/>
<path d="M32.3071 13.1757L32.5341 13.7347C32.5408 13.7512 32.5428 13.7692 32.5398 13.7867C32.5369 13.8043 32.5292 13.8206 32.5175 13.8342C32.5059 13.8478 32.4907 13.8579 32.4736 13.8636C32.4566 13.8693 32.4382 13.8703 32.4206 13.8665L31.8227 13.7427L26.8326 9.60041C26.7949 9.56908 26.7638 9.53075 26.7412 9.48764C26.7185 9.44444 26.7048 9.39741 26.7006 9.34897C26.6965 9.30057 26.7021 9.25184 26.7171 9.20558C26.7321 9.15931 26.7562 9.11641 26.788 9.07934C26.8523 9.0039 26.9443 8.95669 27.0439 8.94808C27.1435 8.93947 27.2425 8.97017 27.3191 9.03342L32.3071 13.1757Z" fill="#9E450B"/>
<path d="M29.0782 12.9242C29.6397 12.1256 30.2558 11.4989 30.5558 11.427C31.0078 11.3192 31.1091 11.8462 30.0471 13.3734C30.2196 13.809 30.2463 14.2876 30.1235 14.7393C30.0007 15.191 29.7345 15.5923 29.3641 15.8847" fill="#FEBD9D"/>
<path d="M29.0782 12.9242C29.6397 12.1256 30.2558 11.4989 30.5558 11.427C31.0078 11.3192 31.1091 11.8462 30.0471 13.3734C30.2196 13.809 30.2463 14.2876 30.1235 14.7393C30.0007 15.191 29.7345 15.5923 29.3641 15.8847" stroke="#F4A789" stroke-width="1.3023" stroke-linecap="round" stroke-linejoin="round"/>
<path d="M24.524 22.2968C24.4896 22.4565 24.2362 22.9156 24.1997 23.0734C23.462 26.1597 22.2296 29.1441 21.6946 31.0786C21.5444 31.6397 21.4233 32.208 21.3318 32.7813C21.0622 34.3983 20.977 35.9195 20.977 35.9195L8.83839 35.6959L7.36893 35.67L7.42569 29.5553L7.43785 28.2697C7.43785 28.2697 3.96792 28.0342 3.94157 28.104C3.91522 28.1739 4.10979 26.2355 4.10979 26.2355C2.97275 24.9499 2.8937 23.0674 3.18354 21.9335C3.37203 21.1749 4.14426 19.1387 4.93674 17.4239C5.25352 16.706 5.6248 16.0126 6.04744 15.3497C7.04465 13.8964 7.6689 13.7866 8.97014 13.5231C10.2714 13.2596 12.4968 12.1057 12.4968 12.1057L16.7086 11.6406C16.7086 11.6406 18.9138 11.7923 20.8798 11.7105C22.7485 11.6326 23.7984 12.0478 24.6193 13.7427C24.6618 13.8305 24.7064 13.9243 24.749 14.0221C25.357 15.4196 25.9002 17.4019 26.1678 18.428C25.3246 20.4123 24.524 22.2968 24.524 22.2968Z" fill="#FFA401"/>
<path d="M24.6193 13.7327C22.8965 13.5491 21.8202 14.9565 20.5554 17.6235C19.0454 20.7997 15.7519 21.2368 12.5981 18.7475C9.81934 16.5515 7.78238 16.0345 4.93671 17.4139C5.25348 16.696 5.62477 16.0027 6.04741 15.3397C7.0446 13.8865 7.66887 13.7767 8.97009 13.5132C10.2713 13.2497 12.4968 12.0958 12.4968 12.0958L16.7085 11.6306C16.7085 11.6306 18.9137 11.7824 20.8797 11.7006C22.7485 11.6227 23.7984 12.0379 24.6193 13.7327Z" fill="#FFA401"/>
<path d="M9.18707 27.3854L10.314 20.3005C10.6281 20.7756 11.4936 21.4344 11.2139 22.774C10.5025 26.1577 12.8759 23.4786 13.8001 25.1056C14.1832 25.7764 10.9403 26.8884 9.18707 27.3854Z" fill="#FFB838"/>
<path d="M13.3015 11.6087C12.9752 11.469 12.4908 11.9281 12.4908 12.0958C12.4908 12.2635 12.9691 13.7287 13.6076 14.4175C14.246 15.1062 15.4094 15.2519 15.8512 13.6429C17.0309 14.8527 18.1841 14.3975 18.024 12.9263C17.8639 11.455 16.8079 11.1715 16.8079 11.1715L13.3015 11.6087Z" fill="white"/>
<path d="M9.08572 28.0242L9.18707 27.3853L10.314 20.2945L10.6667 18.0786" stroke="#FFB838" stroke-width="1.3023" stroke-linecap="round" stroke-linejoin="round"/>
<path d="M4.10977 26.2256C5.83357 25.6802 7.65456 25.4978 9.45452 25.6906" stroke="#FFB838" stroke-width="1.3023" stroke-linecap="round" stroke-linejoin="round"/>
<path d="M16.5038 16.0105C16.7534 16.0105 16.9558 15.8112 16.9558 15.5654C16.9558 15.3194 16.7534 15.1202 16.5038 15.1202C16.2542 15.1202 16.0518 15.3194 16.0518 15.5654C16.0518 15.8112 16.2542 16.0105 16.5038 16.0105Z" fill="white"/>
<path d="M16.9579 17.879C17.2075 17.879 17.4099 17.6798 17.4099 17.4338C17.4099 17.188 17.2075 16.9886 16.9579 16.9886C16.7083 16.9886 16.5059 17.188 16.5059 17.4338C16.5059 17.6798 16.7083 17.879 16.9579 17.879Z" fill="white"/>
<path d="M5.09482 32.478C3.18758 31.8312 3.77536 28.9485 3.99628 27.4414L6.12648 26.9343L9.38967 26.1597C9.38967 26.1597 9.943 33.2305 5.09482 32.478Z" fill="#FEBD9D"/>
<path d="M17.1099 10.1833C17.1099 10.2232 17.0815 10.9678 17.0613 11.5029C17.0613 11.7384 17.043 11.934 17.0389 12.0079C17.0268 12.2555 16.4937 13.2856 15.379 13.0061C14.2642 12.7266 13.3279 11.7824 13.2995 11.6086C13.2711 11.435 13.7819 10.0116 13.5022 7.84366C14.4832 6.72574 17.3329 7.42644 17.1099 10.1833Z" fill="#FEBD9D"/>
<path d="M17.1099 10.1813C17.1099 10.1813 17.0815 10.9518 17.0592 11.5029C16.293 11.3991 14.8297 10.9518 14.9209 9.01947C15.2431 9.49258 16.3457 10.2153 17.1099 10.1813Z" fill="#F4A789"/>
<path d="M26.4171 21.3505C26.4047 21.3498 26.3927 21.3463 26.3819 21.3404C26.371 21.3345 26.3615 21.3264 26.3542 21.3166L22.6512 16.1362C22.6445 16.1268 22.6397 16.116 22.6373 16.1047C22.6348 16.0934 22.6348 16.0817 22.637 16.0704C22.6398 16.0594 22.6448 16.0492 22.6518 16.0402C22.6587 16.0313 22.6675 16.0239 22.6775 16.0184C22.9114 15.8718 23.1792 15.7859 23.4558 15.7689C24.0639 15.7689 24.6719 16.3199 25.5617 17.6714C27.2197 20.1787 26.6866 21.101 26.4839 21.3226C26.4761 21.3314 26.4664 21.3384 26.4556 21.3433C26.4448 21.3481 26.433 21.3506 26.4211 21.3505H26.4171Z" fill="#F9F9F9"/>
<path d="M23.456 15.8488C23.981 15.8488 24.5525 16.296 25.4828 17.7173C26.8611 19.8035 26.7679 20.8775 26.4111 21.2687L22.7284 16.0884C22.9493 15.9475 23.2035 15.865 23.4662 15.8488H23.456ZM23.4662 15.6871C23.178 15.7048 22.8991 15.7941 22.6554 15.9466C22.6355 15.9582 22.6182 15.9737 22.6046 15.9922C22.591 16.0106 22.5813 16.0316 22.5762 16.0538C22.571 16.076 22.5706 16.099 22.5748 16.1215C22.579 16.1439 22.5878 16.1652 22.6007 16.1842L26.3037 21.3626C26.3186 21.3827 26.3376 21.3994 26.3597 21.4115C26.3818 21.4236 26.4063 21.4307 26.4314 21.4325C26.4547 21.4326 26.4779 21.4279 26.4991 21.4186C26.5205 21.4094 26.5395 21.3956 26.555 21.3785C26.7577 21.145 27.3313 20.1808 25.641 17.6275C24.7288 16.2481 24.0986 15.6871 23.4662 15.6871Z" fill="#DDDDDD"/>
<path d="M27.9393 22.2968C27.9236 22.2968 27.9083 22.2927 27.8947 22.2848L26.3767 21.3385C26.3662 21.3312 26.3576 21.3216 26.3513 21.3106C26.345 21.2996 26.3412 21.2873 26.3401 21.2747C26.3392 21.2624 26.3411 21.2502 26.3457 21.2388C26.3503 21.2274 26.3574 21.2172 26.3665 21.2089C26.5321 21.0591 26.7498 20.9776 26.9746 20.9813C27.1435 20.9871 27.3093 21.0275 27.4615 21.1001C27.6136 21.1727 27.7488 21.2756 27.8582 21.4024C28.2799 21.8616 28.0224 22.2609 28.0184 22.2648C28.0094 22.2767 27.9972 22.286 27.9834 22.2916C27.9694 22.2972 27.9542 22.299 27.9393 22.2968Z" fill="#F9F9F9"/>
<path d="M26.9644 21.0631C27.1221 21.0699 27.2767 21.109 27.4184 21.1777C27.56 21.2464 27.6856 21.3433 27.7873 21.4624C28.1704 21.8796 27.9393 22.2249 27.9393 22.2249L26.4212 21.2727C26.5711 21.1425 26.7645 21.0714 26.9644 21.0731V21.0631ZM26.9644 20.9094C26.7231 20.9086 26.4902 20.9969 26.3117 21.1569C26.2926 21.1738 26.2776 21.1948 26.2681 21.2184C26.2586 21.242 26.2548 21.2674 26.257 21.2926C26.2592 21.3175 26.2672 21.3415 26.2801 21.363C26.2931 21.3845 26.3108 21.4027 26.332 21.4164L27.8501 22.3686C27.877 22.3847 27.9078 22.3937 27.9393 22.3946C27.9667 22.3948 27.9938 22.3881 28.0179 22.3752C28.042 22.3623 28.0623 22.3436 28.0771 22.3207C28.0913 22.3007 28.3731 21.8636 27.9109 21.3586C27.7945 21.221 27.6501 21.1092 27.4871 21.0301C27.324 20.951 27.146 20.9065 26.9644 20.8994V20.9094Z" fill="#DDDDDD"/>
<path d="M14.6877 20.4383L23.0626 15.5653C23.0626 15.5653 25.8495 18.4419 26.4211 21.2687L17.5335 25.8103C17.5335 25.8103 16.5525 22.6961 14.6877 20.4383Z" fill="#F9F9F9" stroke="#DDDDDD" stroke-width="1.75064" stroke-linecap="round" stroke-linejoin="round"/>
<path d="M17.9531 25.5966L20.0934 26.2255L27.9352 22.2209C27.5179 21.7836 26.996 21.4563 26.4172 21.2687L17.9531 25.5966Z" fill="#DDDDDD" stroke="#DDDDDD" stroke-width="1.75064" stroke-miterlimit="10"/>
<path d="M21.8973 22.9835C21.8163 23.3548 21.0562 23.4426 20.59 23.4127C20.1238 23.3828 18.5632 23.4726 18.5632 23.4726C18.5632 23.4726 19.4225 23.9298 19.5138 24.0156C19.7933 24.4247 20.0104 24.872 20.1583 25.3432C20.3833 26.0258 20.2151 26.4351 19.9881 26.3852C19.761 26.3353 19.682 25.9859 19.682 25.9859C19.6029 26.4431 19.3152 26.0638 19.3152 26.0638C19.3152 26.2095 18.6037 27.4612 18.3159 27.2037C18.0281 26.9461 18.4314 26.3173 18.4314 26.3173H18.1376C17.5976 26.7596 17.028 27.1658 16.433 27.5331C15.8871 27.8459 15.2895 28.0615 14.6676 28.1699C14.6676 28.1699 13.2934 29.1281 11.5625 30.1502C9.42623 31.4158 6.74271 32.7813 5.44351 32.5697C5.10477 32.5283 4.78462 32.3941 4.51948 32.1823C4.25434 31.9706 4.05483 31.6898 3.94366 31.372C3.94452 31.362 3.94452 31.352 3.94366 31.342C3.94366 31.318 3.92136 31.2821 3.90717 31.2362C3.70449 30.5794 3.27075 27.7607 9.37962 26.1636L9.41812 26.1537L13.79 25.0916C14.7021 24.1753 16.7309 22.3926 17.0654 22.2968C17.3998 22.201 21.9763 22.6122 21.8973 22.9835Z" fill="#FEBD9D"/>
<path d="M18.4396 26.3094C18.4396 26.3094 18.0342 26.9422 18.324 27.1957C18.6139 27.4493 19.3232 26.1977 19.3232 26.0559C19.3232 26.0559 19.6111 26.4352 19.6901 25.978C19.6901 25.978 19.7691 26.3373 19.9961 26.3873C20.2231 26.4372 20.3914 26.026 20.1644 25.3432C20.0189 24.8721 19.8024 24.4252 19.5218 24.0176C19.4327 23.9298 18.5713 23.4727 18.5713 23.4727C18.5713 23.4727 20.1238 23.3848 20.5981 23.4127C21.0724 23.4407 21.8264 23.3549 21.9054 22.9836C21.9845 22.6122 17.412 22.205 17.0755 22.3028C16.9073 22.3508 16.3154 22.8219 15.6567 23.3948" stroke="#F4A789" stroke-width="1.3023" stroke-linecap="round" stroke-linejoin="round"/>
<path d="M18.5713 23.4727L17.793 23.1693" stroke="#F4A789" stroke-width="1.3023" stroke-linecap="round" stroke-linejoin="round"/>
<path d="M17.9957 24.1873C17.9957 24.1873 19.2382 24.7123 19.3232 24.892C19.5013 25.2333 19.625 25.5996 19.6902 25.978" stroke="#F4A789" stroke-width="1.3023" stroke-linecap="round" stroke-linejoin="round"/>
<path d="M18.1355 25.0916C18.1355 25.0916 19.0577 25.6526 19.1691 25.7623C19.2451 25.8495 19.298 25.9537 19.3232 26.0658" stroke="#F4A789" stroke-width="1.3023" stroke-linecap="round" stroke-linejoin="round"/>
</g>
<defs>
<clipPath id="clip0_14_103">
<rect width="30" height="36" fill="white" transform="translate(3)"/>
</clipPath>
</defs>
</svg>
