<svg width="196" height="79" viewBox="0 0 196 79" fill="none" xmlns="http://www.w3.org/2000/svg">
<path d="M80.89 64C80.63 64 80.41 63.92 80.23 63.76C80.07 63.58 79.99 63.36 79.99 63.1V55.03C79.99 53.71 79.73 52.62 79.21 51.76C78.71 50.9 78.02 50.26 77.14 49.84C76.28 49.4 75.3 49.18 74.2 49.18C73.12 49.18 72.15 49.39 71.29 49.81C70.43 50.21 69.75 50.77 69.25 51.49C68.75 52.21 68.5 53.02 68.5 53.92H67C67.08 52.68 67.45 51.57 68.11 50.59C68.77 49.59 69.63 48.81 70.69 48.25C71.75 47.67 72.92 47.38 74.2 47.38C75.64 47.38 76.93 47.68 78.07 48.28C79.23 48.86 80.14 49.72 80.8 50.86C81.46 51.98 81.79 53.37 81.79 55.03V63.1C81.79 63.36 81.7 63.58 81.52 63.76C81.36 63.92 81.15 64 80.89 64ZM67.6 64C67.34 64 67.12 63.92 66.94 63.76C66.78 63.58 66.7 63.36 66.7 63.1V48.49C66.7 48.21 66.78 47.99 66.94 47.83C67.12 47.67 67.34 47.59 67.6 47.59C67.88 47.59 68.1 47.67 68.26 47.83C68.42 47.99 68.5 48.21 68.5 48.49V63.1C68.5 63.36 68.42 63.58 68.26 63.76C68.1 63.92 67.88 64 67.6 64ZM94.3855 64.18C92.7855 64.18 91.3455 63.82 90.0655 63.1C88.8055 62.36 87.8055 61.36 87.0655 60.1C86.3455 58.82 85.9855 57.39 85.9855 55.81C85.9855 54.21 86.3455 52.78 87.0655 51.52C87.8055 50.24 88.8055 49.24 90.0655 48.52C91.3455 47.78 92.7855 47.41 94.3855 47.41C95.9855 47.41 97.4155 47.78 98.6755 48.52C99.9355 49.24 100.926 50.24 101.646 51.52C102.386 52.78 102.756 54.21 102.756 55.81C102.756 57.39 102.386 58.82 101.646 60.1C100.926 61.36 99.9355 62.36 98.6755 63.1C97.4155 63.82 95.9855 64.18 94.3855 64.18ZM94.3855 62.5C95.6455 62.5 96.7655 62.21 97.7455 61.63C98.7455 61.03 99.5255 60.23 100.086 59.23C100.666 58.21 100.956 57.06 100.956 55.78C100.956 54.52 100.666 53.39 100.086 52.39C99.5255 51.37 98.7455 50.57 97.7455 49.99C96.7655 49.39 95.6455 49.09 94.3855 49.09C93.1455 49.09 92.0255 49.39 91.0255 49.99C90.0255 50.57 89.2355 51.37 88.6555 52.39C88.0755 53.39 87.7855 54.53 87.7855 55.81C87.7855 57.07 88.0755 58.21 88.6555 59.23C89.2355 60.23 90.0255 61.03 91.0255 61.63C92.0255 62.21 93.1455 62.5 94.3855 62.5ZM113.967 64C112.867 63.98 111.887 63.73 111.027 63.25C110.167 62.75 109.497 62.07 109.017 61.21C108.537 60.33 108.297 59.34 108.297 58.24V43.3C108.297 43.02 108.377 42.8 108.537 42.64C108.717 42.46 108.937 42.37 109.197 42.37C109.477 42.37 109.697 42.46 109.857 42.64C110.037 42.8 110.127 43.02 110.127 43.3V58.24C110.127 59.4 110.487 60.35 111.207 61.09C111.927 61.81 112.857 62.17 113.997 62.17H114.657C114.937 62.17 115.157 62.26 115.317 62.44C115.497 62.6 115.587 62.82 115.587 63.1C115.587 63.36 115.497 63.58 115.317 63.76C115.157 63.92 114.937 64 114.657 64H113.967ZM105.957 49.81C105.717 49.81 105.517 49.74 105.357 49.6C105.217 49.44 105.147 49.24 105.147 49C105.147 48.76 105.217 48.57 105.357 48.43C105.517 48.27 105.717 48.19 105.957 48.19H114.087C114.327 48.19 114.517 48.27 114.657 48.43C114.817 48.57 114.897 48.76 114.897 49C114.897 49.24 114.817 49.44 114.657 49.6C114.517 49.74 114.327 49.81 114.087 49.81H105.957ZM126.606 64.15C125.026 64.15 123.616 63.8 122.376 63.1C121.156 62.38 120.196 61.39 119.496 60.13C118.796 58.87 118.446 57.43 118.446 55.81C118.446 54.17 118.776 52.73 119.436 51.49C120.096 50.23 121.006 49.24 122.166 48.52C123.326 47.8 124.656 47.44 126.156 47.44C127.636 47.44 128.946 47.79 130.086 48.49C131.226 49.17 132.116 50.12 132.756 51.34C133.396 52.54 133.716 53.93 133.716 55.51C133.716 55.77 133.636 55.98 133.476 56.14C133.316 56.28 133.106 56.35 132.846 56.35H119.646V54.79H133.326L132.006 55.78C132.046 54.48 131.826 53.33 131.346 52.33C130.866 51.33 130.176 50.55 129.276 49.99C128.396 49.41 127.356 49.12 126.156 49.12C125.016 49.12 123.996 49.41 123.096 49.99C122.216 50.55 121.516 51.33 120.996 52.33C120.496 53.33 120.246 54.49 120.246 55.81C120.246 57.11 120.516 58.26 121.056 59.26C121.596 60.26 122.346 61.05 123.306 61.63C124.266 62.19 125.366 62.47 126.606 62.47C127.386 62.47 128.166 62.34 128.946 62.08C129.746 61.8 130.376 61.44 130.836 61C130.996 60.84 131.186 60.76 131.406 60.76C131.646 60.74 131.846 60.8 132.006 60.94C132.226 61.12 132.336 61.32 132.336 61.54C132.356 61.76 132.266 61.96 132.066 62.14C131.426 62.72 130.586 63.2 129.546 63.58C128.526 63.96 127.546 64.15 126.606 64.15ZM143.208 64.18C142.168 64.18 141.078 63.99 139.938 63.61C138.798 63.23 137.848 62.59 137.088 61.69C136.928 61.49 136.858 61.28 136.878 61.06C136.918 60.82 137.048 60.62 137.268 60.46C137.468 60.32 137.678 60.27 137.898 60.31C138.138 60.35 138.328 60.46 138.468 60.64C139.048 61.32 139.748 61.8 140.568 62.08C141.408 62.34 142.318 62.47 143.298 62.47C144.978 62.47 146.168 62.17 146.868 61.57C147.568 60.97 147.918 60.27 147.918 59.47C147.918 58.69 147.538 58.05 146.778 57.55C146.038 57.03 144.888 56.66 143.328 56.44C141.328 56.16 139.848 55.62 138.888 54.82C137.928 54.02 137.448 53.09 137.448 52.03C137.448 51.03 137.698 50.19 138.198 49.51C138.698 48.81 139.378 48.29 140.238 47.95C141.118 47.59 142.118 47.41 143.238 47.41C144.598 47.41 145.748 47.66 146.688 48.16C147.628 48.64 148.388 49.29 148.968 50.11C149.128 50.31 149.178 50.53 149.118 50.77C149.078 50.99 148.928 51.17 148.668 51.31C148.468 51.41 148.258 51.44 148.038 51.4C147.818 51.36 147.628 51.24 147.468 51.04C146.968 50.4 146.358 49.92 145.638 49.6C144.938 49.26 144.118 49.09 143.178 49.09C141.918 49.09 140.938 49.36 140.238 49.9C139.538 50.44 139.188 51.09 139.188 51.85C139.188 52.37 139.328 52.83 139.608 53.23C139.908 53.61 140.388 53.94 141.048 54.22C141.708 54.48 142.588 54.69 143.688 54.85C145.188 55.05 146.368 55.39 147.228 55.87C148.108 56.35 148.728 56.91 149.088 57.55C149.468 58.17 149.658 58.84 149.658 59.56C149.658 60.5 149.358 61.32 148.758 62.02C148.158 62.72 147.368 63.26 146.388 63.64C145.408 64 144.348 64.18 143.208 64.18ZM154.042 64.48C153.602 64.48 153.232 64.33 152.932 64.03C152.652 63.75 152.512 63.39 152.512 62.95C152.512 62.51 152.662 62.15 152.962 61.87C153.262 61.59 153.622 61.45 154.042 61.45C154.462 61.45 154.812 61.6 155.092 61.9C155.392 62.18 155.542 62.53 155.542 62.95C155.542 63.37 155.392 63.73 155.092 64.03C154.812 64.33 154.462 64.48 154.042 64.48ZM167.007 64.18C165.447 64.18 164.047 63.81 162.807 63.07C161.587 62.33 160.617 61.33 159.897 60.07C159.197 58.81 158.847 57.39 158.847 55.81C158.847 54.21 159.177 52.78 159.837 51.52C160.497 50.26 161.407 49.27 162.567 48.55C163.727 47.81 165.057 47.44 166.557 47.44C167.837 47.44 169.007 47.69 170.067 48.19C171.127 48.67 172.047 49.41 172.827 50.41C172.987 50.61 173.047 50.82 173.007 51.04C172.967 51.26 172.837 51.44 172.617 51.58C172.437 51.72 172.237 51.78 172.017 51.76C171.797 51.72 171.607 51.6 171.447 51.4C170.167 49.88 168.537 49.12 166.557 49.12C165.377 49.12 164.337 49.41 163.437 49.99C162.557 50.57 161.867 51.36 161.367 52.36C160.887 53.36 160.647 54.51 160.647 55.81C160.647 57.07 160.917 58.21 161.457 59.23C161.997 60.23 162.737 61.03 163.677 61.63C164.637 62.21 165.747 62.5 167.007 62.5C167.827 62.5 168.597 62.38 169.317 62.14C170.057 61.9 170.697 61.53 171.237 61.03C171.417 60.87 171.617 60.78 171.837 60.76C172.057 60.74 172.247 60.81 172.407 60.97C172.607 61.15 172.707 61.36 172.707 61.6C172.727 61.82 172.647 62.01 172.467 62.17C171.007 63.51 169.187 64.18 167.007 64.18ZM185.03 64.18C183.43 64.18 181.99 63.82 180.71 63.1C179.45 62.36 178.45 61.36 177.71 60.1C176.99 58.82 176.63 57.39 176.63 55.81C176.63 54.21 176.99 52.78 177.71 51.52C178.45 50.24 179.45 49.24 180.71 48.52C181.99 47.78 183.43 47.41 185.03 47.41C186.63 47.41 188.06 47.78 189.32 48.52C190.58 49.24 191.57 50.24 192.29 51.52C193.03 52.78 193.4 54.21 193.4 55.81C193.4 57.39 193.03 58.82 192.29 60.1C191.57 61.36 190.58 62.36 189.32 63.1C188.06 63.82 186.63 64.18 185.03 64.18ZM185.03 62.5C186.29 62.5 187.41 62.21 188.39 61.63C189.39 61.03 190.17 60.23 190.73 59.23C191.31 58.21 191.6 57.06 191.6 55.78C191.6 54.52 191.31 53.39 190.73 52.39C190.17 51.37 189.39 50.57 188.39 49.99C187.41 49.39 186.29 49.09 185.03 49.09C183.79 49.09 182.67 49.39 181.67 49.99C180.67 50.57 179.88 51.37 179.3 52.39C178.72 53.39 178.43 54.53 178.43 55.81C178.43 57.07 178.72 58.21 179.3 59.23C179.88 60.23 180.67 61.03 181.67 61.63C182.67 62.21 183.79 62.5 185.03 62.5Z" fill="black"/>
<g clip-path="url(#clip0_5_57)">
<path d="M11.6899 32.4663C11.7678 29.7151 13.5925 27.5817 14.401 26.5522C15.2096 25.5228 13.8995 24.7385 14.401 22.4912C15.1707 19.0436 19.1703 20.98 19.1703 15.4295C19.1703 13.7035 19.5767 13.3355 19.5767 13.3355C19.5767 13.3355 16.576 6.65044 22.0198 4.43378C22.0198 4.43378 22.5041 1.59505 27.4505 0.324629C32.3971 -0.945789 36.8508 4.2235 33.6468 11.7146L33.4045 17.6286C33.8681 17.7144 34.2914 17.9512 34.6098 18.3031C34.9284 18.655 35.1246 19.1027 35.1688 19.5781C35.5319 22.0839 38.6926 20.5242 38.8571 27.0254L11.6899 32.4663Z" fill="#DD6B20"/>
<path d="M23.183 23.6742C20.7269 24.4451 18.7985 24.3049 18.7985 22.0794C18.7985 19.9942 21.3452 18.8815 20.9302 15.5083C20.515 12.1352 21.1593 10.5055 22.2878 9.03796C23.4163 7.5704 25.0422 2.57635 29.0461 3.46125C33.0501 4.34618 33.6468 11.6927 33.6468 11.6927L31.5324 18.5311C31.5324 18.5311 34.1268 22.1758 33.3657 23.5032C32.6048 24.8306 23.183 23.6742 23.183 23.6742Z" fill="#9E450B"/>
<path d="M32.7775 18.8421C32.7775 18.8421 34.8012 18.8728 34.2823 21.5143C34.0986 22.4157 34.2198 23.3534 34.626 24.1767C35.0323 24.9999 35.7003 25.6608 36.5221 26.0528" stroke="#9E450B" stroke-width="1.3023" stroke-linecap="round" stroke-linejoin="round"/>
<path d="M22.0196 6.32635C19.7713 8.99861 20.6404 11.6621 20.6404 11.6621" stroke="#9E450B" stroke-width="1.3023" stroke-linecap="round" stroke-linejoin="round"/>
<path d="M19.8363 20.4543C17.3933 21.7203 15.9708 24.1998 17.4928 26.5873C17.804 27.0566 18.0092 27.5897 18.0936 28.1486C18.1781 28.7074 18.1397 29.2782 17.9814 29.8203" stroke="#9E450B" stroke-width="1.3023" stroke-linecap="round" stroke-linejoin="round"/>
<path d="M22.0198 4.43384C22.0198 4.43384 23.8272 4.9639 24.3461 6.09852" stroke="#9E450B" stroke-width="1.3023" stroke-linecap="round" stroke-linejoin="round"/>
<path d="M25.6561 4.26737C25.6561 4.26737 29.6991 0.499916 32.5961 3.91692" stroke="#9E450B" stroke-width="1.3023" stroke-linecap="round" stroke-linejoin="round"/>
<path d="M34.7753 16.2969C34.8618 21.0456 31.6492 22.246 30.101 22.3422C26.5513 22.4692 23.265 18.3996 22.1669 16.8576C22.1278 16.5378 22.0846 16.2136 22.0328 15.8807C19.9227 16.3188 19.0579 15.3375 18.8201 13.8305C18.5823 12.3235 20.3984 10.5756 22.7506 12.5162C24.9557 10.9742 25.2628 8.83643 24.8 6.93517C25.3201 6.17786 26.0654 5.60875 26.9274 5.31087C27.7891 5.01297 28.7224 5.00189 29.5909 5.27925C32.0555 6.00644 33.7721 9.41906 34.451 13.1383C34.6053 13.9867 34.7064 14.8441 34.7536 15.7054C34.7623 15.9026 34.771 16.0997 34.7753 16.2969Z" fill="#FEBD9D"/>
<path d="M31.0439 7.91645C31.1216 8.54728 32.7301 8.64803 33.4522 8.28005C34.1744 7.91208 30.845 6.11597 31.0439 7.91645Z" fill="#DD6B20"/>
<path d="M26.0626 9.2702C25.9372 9.83094 27.5154 9.09496 28.0906 9.05116C28.6655 9.00735 28.9552 8.75325 28.6785 8.0392C28.4018 7.32514 26.3263 8.06548 26.0626 9.2702Z" fill="#DD6B20"/>
<path d="M29.2148 12.5207C29.4775 12.5207 29.6906 12.305 29.6906 12.0388C29.6906 11.7727 29.4775 11.5569 29.2148 11.5569C28.9521 11.5569 28.7393 11.7727 28.7393 12.0388C28.7393 12.305 28.9521 12.5207 29.2148 12.5207Z" fill="#9E450B"/>
<path d="M32.5746 11.3072C32.8372 11.3072 33.0501 11.0915 33.0501 10.8253C33.0501 10.5592 32.8372 10.3434 32.5746 10.3434C32.3119 10.3434 32.0988 10.5592 32.0988 10.8253C32.0988 11.0915 32.3119 11.3072 32.5746 11.3072Z" fill="#9E450B"/>
<path d="M31.1386 10.5669C31.1042 12.0038 31.7874 12.4988 31.9561 12.6652C32.3409 13.0464 33.2531 12.6652 32.8207 14.0627" stroke="#F4A789" stroke-width="1.3023" stroke-linecap="round" stroke-linejoin="round"/>
<path d="M29.4957 16.5422C30.1098 15.9245 32.4403 16.0516 32.704 16.2969C32.9679 16.5422 32.5225 17.6111 31.5107 17.6111C30.4988 17.6111 29.2103 16.8357 29.4957 16.5422Z" fill="white" stroke="#F4A789" stroke-width="1.3023" stroke-linecap="round" stroke-linejoin="round"/>
<path d="M20.1475 13.9883C20.6837 13.191 21.7993 13.4582 22.2446 13.8569C20.8048 13.6159 20.6708 15.2412 22.2878 14.8118" stroke="#F4A789" stroke-width="1.3023" stroke-linecap="round" stroke-linejoin="round"/>
<path d="M29.6514 15.4601C29.4224 16.1391 28.2246 16.3362 26.9665 15.8982C25.7081 15.4601 24.878 14.5839 25.1028 13.8962C25.3276 13.2084 26.5296 13.02 27.7837 13.4581C29.0376 13.8962 29.8764 14.7811 29.6514 15.4601Z" fill="#F4A789"/>
<path d="M34.7364 15.6967C34.144 15.8106 33.651 15.6967 33.4392 15.3681C33.0803 14.8293 33.5256 13.8699 34.451 13.1339C34.5993 13.9812 34.6945 14.8372 34.7364 15.6967Z" fill="#F4A789"/>
<path d="M20.7441 16.2968C20.7433 16.5047 20.8036 16.708 20.9173 16.8811C21.0307 17.0541 21.1927 17.189 21.3821 17.2685C21.5716 17.348 21.7802 17.3686 21.9814 17.3276C22.1825 17.2866 22.367 17.1859 22.5114 17.0384C22.6558 16.8908 22.7536 16.703 22.7923 16.4989C22.8312 16.2949 22.8091 16.0837 22.7289 15.8924C22.6489 15.7011 22.5144 15.5382 22.3427 15.4246C22.1709 15.3109 21.9696 15.2516 21.7646 15.2542C21.4935 15.2577 21.2346 15.3689 21.0438 15.5639C20.8528 15.759 20.7453 16.0222 20.7441 16.2968Z" fill="#A7CAF0"/>
<path d="M62.4093 31.0993L57.3675 37.7144C57.3675 37.7144 50.6224 65.1949 47.2279 67.5036C46.1537 68.2219 44.9219 68.6627 43.6405 68.7871C42.3589 68.9116 41.0669 68.7161 39.8775 68.2176C39.8793 68.2016 39.8793 68.1854 39.8775 68.1694C39.8775 68.1035 36.8506 65.6022 37.4473 61.8217C37.4993 61.4712 44.2359 49.6738 47.1242 44.4782C49.4333 40.2902 52.2394 35.5065 52.2394 35.5065L62.4093 31.0993Z" fill="#FEBD9D"/>
<path d="M52.2438 35.5151C52.2438 35.5151 52.6373 29.3078 52.7757 28.6111C52.914 27.9145 57.0519 23.88 57.6401 23.5601C58.228 23.2404 61.8949 24.3398 62.1932 24.6771C62.4915 25.0145 62.1543 25.8162 61.1684 25.7548C60.1825 25.6935 61.0301 28.1117 61.0301 28.1117C61.0301 28.1117 62.6256 29.8201 62.3876 31.0993C62.3876 31.0993 56.2045 37.4122 56.1268 37.3902C56.0488 37.3682 52.2438 35.5151 52.2438 35.5151Z" fill="#FEBD9D"/>
<path d="M52.2438 35.5151C52.2438 35.5151 52.6373 29.3078 52.7757 28.6111C52.914 27.9145 57.0519 23.88 57.6401 23.5601C58.228 23.2404 61.8949 24.3398 62.1932 24.6771C62.4915 25.0145 62.1543 25.8162 61.1684 25.7548C60.1825 25.6935 61.0301 28.1117 61.0301 28.1117C61.0301 28.1117 62.6256 29.8201 62.3876 31.0993C62.3876 31.0993 56.2045 37.4122 56.1268 37.3902C56.0488 37.3682 52.2438 35.5151 52.2438 35.5151Z" fill="#FEBD9D"/>
<path d="M52.7757 28.6111C52.8968 27.9014 57.0519 23.88 57.6531 23.5601C58.2542 23.2404 61.9079 24.3398 62.2062 24.6771C62.5045 25.0145 62.1673 25.8162 61.1814 25.7548" stroke="#F4A789" stroke-width="1.3023" stroke-linecap="round" stroke-linejoin="round"/>
<path d="M58.6864 26.0573C58.7427 25.9171 61.0516 25.1372 61.4451 25.2775C61.8386 25.4177 63.728 28.6111 63.7886 29.2464C63.8491 29.8817 62.9499 32.6898 62.1327 32.4401C61.3155 32.1903 62.1671 29.8115 62.1671 29.8115L58.6864 26.0573Z" fill="#FEBD9D" stroke="#F4A789" stroke-width="1.3023" stroke-linecap="round" stroke-linejoin="round"/>
<path d="M60.282 31.5856C60.9477 32.0237 61.726 30.9986 62.1671 29.8333L60.6797 28.5892C60.6797 28.5892 59.296 30.9241 60.282 31.5856Z" fill="#FEBD9D" stroke="#F4A789" stroke-width="1.3023" stroke-linecap="round" stroke-linejoin="round"/>
<path d="M62.5217 28.9134L63.006 30.14C63.0204 30.1762 63.0246 30.2158 63.0183 30.2541C63.0121 30.2927 62.9957 30.3286 62.9707 30.3584C62.9458 30.3881 62.9134 30.4103 62.877 30.4228C62.8407 30.4353 62.8014 30.4376 62.764 30.4292L61.4884 30.1575L50.843 21.0676C50.7625 20.9988 50.6961 20.9147 50.6479 20.8201C50.5995 20.7253 50.5701 20.6221 50.5612 20.5158C50.5525 20.4096 50.5645 20.3027 50.5965 20.2011C50.6285 20.0996 50.6799 20.0055 50.7478 19.9241C50.8849 19.7586 51.0811 19.655 51.2936 19.6361C51.506 19.6172 51.7173 19.6845 51.8807 19.8233L62.5217 28.9134Z" fill="#9E450B"/>
<path d="M55.6336 28.3614C56.8314 26.609 58.1458 25.2336 58.7858 25.0758C59.7501 24.8392 59.9662 25.9959 57.7004 29.3472C58.0684 30.3032 58.1256 31.3534 57.8635 32.3447C57.6014 33.3357 57.0337 34.2164 56.2434 34.8581" fill="#FEBD9D"/>
<path d="M55.6336 28.3614C56.8314 26.609 58.1458 25.2336 58.7858 25.0758C59.7501 24.8392 59.9662 25.9959 57.7004 29.3472C58.0684 30.3032 58.1256 31.3534 57.8635 32.3447C57.6014 33.3357 57.0337 34.2164 56.2434 34.8581" stroke="#F4A789" stroke-width="1.3023" stroke-linecap="round" stroke-linejoin="round"/>
<path d="M45.918 48.9291C45.8444 49.2796 45.3039 50.2871 45.2261 50.6333C43.6522 57.4059 41.0232 63.9551 39.8817 68.2002C39.5613 69.4316 39.3031 70.6787 39.1078 71.9368C38.5326 75.4852 38.351 78.8233 38.351 78.8233L12.4552 78.3327L9.32038 78.2759L9.44145 64.8576L9.4674 62.0364C9.4674 62.0364 2.06488 61.5195 2.00867 61.6727C1.95246 61.826 2.36755 57.5723 2.36755 57.5723C-0.0581555 54.7511 -0.226787 50.6201 0.39153 48.1319C0.793652 46.4672 2.44107 41.9989 4.1317 38.2358C4.80749 36.6603 5.59957 35.1388 6.5012 33.6842C8.62857 30.4948 9.96032 30.2539 12.7363 29.6757C15.5122 29.0975 20.2598 26.5653 20.2598 26.5653L29.2449 25.5447C29.2449 25.5447 33.9493 25.8775 38.1436 25.698C42.1302 25.5271 44.37 26.4383 46.1211 30.1577C46.2118 30.3504 46.307 30.5562 46.3978 30.7708C47.695 33.8375 48.8539 38.1876 49.4246 40.4392C47.6259 44.7936 45.918 48.9291 45.918 48.9291Z" fill="#FFA401"/>
<path d="M46.1211 30.1357C42.4458 29.7327 40.1497 32.8211 37.4516 38.6739C34.2303 45.6437 27.2041 46.603 20.476 41.1403C14.5479 36.3213 10.2024 35.1868 4.13165 38.2138C4.80744 36.6385 5.59952 35.117 6.50115 33.6622C8.6285 30.4731 9.96027 30.2322 12.7362 29.6539C15.5122 29.0757 20.2599 26.5436 20.2599 26.5436L29.2448 25.5227C29.2448 25.5227 33.9492 25.8558 38.1434 25.6762C42.1301 25.5053 44.3699 26.4166 46.1211 30.1357Z" fill="#FFA401"/>
<path d="M13.1991 60.0958L15.6032 44.5484C16.2734 45.591 18.1197 47.0366 17.523 49.9762C16.0053 57.4016 21.0686 51.5226 23.0402 55.093C23.8574 56.5648 16.9393 59.005 13.1991 60.0958Z" fill="#FFB838"/>
<path d="M21.9765 25.4745C21.2804 25.168 20.2469 26.1755 20.2469 26.5436C20.2469 26.9115 21.2675 30.1269 22.6295 31.6384C23.9915 33.1496 26.4733 33.4695 27.4159 29.9385C29.9326 32.5933 32.3927 31.5944 32.0513 28.3659C31.7096 25.1374 29.4568 24.5152 29.4568 24.5152L21.9765 25.4745Z" fill="white"/>
<path d="M12.9829 61.4975L13.1991 60.0956L15.6032 44.5353L16.3556 39.6726" stroke="#FFB838" stroke-width="1.3023" stroke-linecap="round" stroke-linejoin="round"/>
<path d="M2.36749 57.5506C6.04492 56.3537 9.9297 55.9535 13.7696 56.3764" stroke="#FFB838" stroke-width="1.3023" stroke-linecap="round" stroke-linejoin="round"/>
<path d="M28.8081 35.1343C29.3406 35.1343 29.7724 34.6968 29.7724 34.1574C29.7724 33.6177 29.3406 33.1804 28.8081 33.1804C28.2757 33.1804 27.8439 33.6177 27.8439 34.1574C27.8439 34.6968 28.2757 35.1343 28.8081 35.1343Z" fill="white"/>
<path d="M29.7768 39.2345C30.3093 39.2345 30.7411 38.7972 30.7411 38.2575C30.7411 37.7181 30.3093 37.2806 29.7768 37.2806C29.2444 37.2806 28.8126 37.7181 28.8126 38.2575C28.8126 38.7972 29.2444 39.2345 29.7768 39.2345Z" fill="white"/>
<path d="M4.46894 71.2711C0.400155 69.8518 1.65409 63.5258 2.12538 60.2185L6.66981 59.1057L13.6313 57.4059C13.6313 57.4059 14.8117 72.9225 4.46894 71.2711Z" fill="#FEBD9D"/>
<path d="M30.101 22.3468C30.101 22.4344 30.0405 24.0683 29.9973 25.2425C29.9973 25.7593 29.9585 26.1886 29.9498 26.3507C29.9238 26.8941 28.7866 29.1545 26.4085 28.5412C24.0304 27.9278 22.0328 25.8558 21.9722 25.4745C21.9117 25.0935 23.0013 21.97 22.4046 17.2125C24.4974 14.7593 30.5768 16.2969 30.101 22.3468Z" fill="#FEBD9D"/>
<path d="M30.1011 22.3424C30.1011 22.3424 30.0405 24.0332 29.9929 25.2424C28.3585 25.0147 25.2367 24.0332 25.4313 19.7928C26.1187 20.831 28.4709 22.4169 30.1011 22.3424Z" fill="#F4A789"/>
<path d="M49.9565 46.8526C49.9302 46.8509 49.9044 46.8433 49.8813 46.8304C49.8583 46.8175 49.838 46.7996 49.8224 46.7781L41.9227 35.4101C41.9083 35.3893 41.8981 35.3657 41.8929 35.3409C41.8876 35.3161 41.8876 35.2904 41.8923 35.2656C41.8984 35.2416 41.9089 35.219 41.9239 35.1993C41.9387 35.1798 41.9575 35.1636 41.9788 35.1515C42.4778 34.8298 43.0489 34.6414 43.6391 34.6041C44.9363 34.6041 46.2335 35.8131 48.1317 38.779C51.6687 44.281 50.5315 46.3051 50.0991 46.7912C50.0825 46.8107 50.0618 46.8261 50.0387 46.8368C50.0156 46.8472 49.9905 46.8528 49.965 46.8526H49.9565Z" fill="#F9F9F9"/>
<path d="M43.6395 34.7793C44.7595 34.7793 45.9787 35.7605 47.9633 38.8797C50.9037 43.4576 50.7048 45.8145 49.9437 46.673L42.0873 35.305C42.5586 34.9958 43.1008 34.8148 43.6612 34.7793H43.6395ZM43.6612 34.4245C43.0465 34.4633 42.4514 34.6592 41.9315 34.9939C41.889 35.0194 41.8521 35.0534 41.8232 35.0938C41.794 35.1343 41.7734 35.1804 41.7624 35.2291C41.7515 35.2779 41.7505 35.3284 41.7596 35.3776C41.7685 35.4269 41.7873 35.4737 41.8149 35.5153L49.7146 46.879C49.7462 46.9231 49.7869 46.9598 49.8339 46.9863C49.8811 47.0128 49.9334 47.0284 49.987 47.0323C50.0367 47.0327 50.0861 47.0222 50.1314 47.0019C50.177 46.9816 50.2175 46.9514 50.2507 46.9139C50.6831 46.4015 51.9068 44.2855 48.3008 38.6825C46.3548 35.6555 45.0102 34.4245 43.6612 34.4245Z" fill="#DDDDDD"/>
<path d="M53.2038 48.9291C53.1704 48.9291 53.1376 48.9201 53.1086 48.9028L49.8701 46.8263C49.8479 46.8101 49.8294 46.7891 49.8161 46.7649C49.8027 46.7407 49.7946 46.7138 49.7922 46.6861C49.7904 46.6592 49.7944 46.6324 49.8041 46.6073C49.8138 46.5823 49.829 46.5599 49.8485 46.5417C50.2017 46.2129 50.6661 46.0342 51.1457 46.0422C51.506 46.0549 51.8598 46.1438 52.1845 46.303C52.5089 46.4623 52.7973 46.6882 53.0309 46.9664C53.9303 47.9741 53.381 48.8503 53.3725 48.8589C53.3533 48.885 53.3274 48.9053 53.2978 48.9176C53.268 48.9299 53.2356 48.934 53.2038 48.9291Z" fill="#F9F9F9"/>
<path d="M51.1241 46.2218C51.4605 46.2368 51.7904 46.3225 52.0926 46.4734C52.3947 46.6242 52.6627 46.8368 52.8796 47.098C53.6968 48.0135 53.2038 48.7713 53.2038 48.7713L49.9652 46.6818C50.285 46.396 50.6977 46.24 51.1241 46.2437V46.2218ZM51.1241 45.8844C50.6092 45.8828 50.1124 46.0765 49.7316 46.4276C49.6909 46.4647 49.6589 46.5109 49.6387 46.5626C49.6184 46.6143 49.6103 46.6701 49.615 46.7255C49.6196 46.7801 49.6367 46.8329 49.6642 46.8798C49.6919 46.927 49.7298 46.9671 49.775 46.9972L53.0137 49.0867C53.071 49.122 53.1366 49.1417 53.2038 49.1438C53.2624 49.1442 53.3201 49.1294 53.3715 49.1011C53.423 49.0728 53.4663 49.0317 53.4979 48.9817C53.5281 48.9377 54.1292 47.9785 53.1433 46.8702C52.895 46.5684 52.5869 46.3229 52.2392 46.1493C51.8912 45.9758 51.5115 45.8781 51.1241 45.8625V45.8844Z" fill="#DDDDDD"/>
<path d="M24.9339 44.8507L42.8002 34.1571C42.8002 34.1571 48.7457 40.4697 49.965 46.673L31.0048 56.6393C31.0048 56.6393 28.912 49.8053 24.9339 44.8507Z" fill="#F9F9F9" stroke="#DDDDDD" stroke-width="1.75064" stroke-linecap="round" stroke-linejoin="round"/>
<path d="M31.9 56.1704L36.466 57.5504L53.1952 48.7627C52.3048 47.803 51.1915 47.0846 49.9567 46.673L31.9 56.1704Z" fill="#DDDDDD" stroke="#DDDDDD" stroke-width="1.75064" stroke-miterlimit="10"/>
<path d="M40.3143 50.4361C40.1414 51.2509 38.5199 51.4436 37.5253 51.3779C36.5308 51.3122 33.2014 51.5094 33.2014 51.5094C33.2014 51.5094 35.0347 52.5126 35.2294 52.701C35.8256 53.5987 36.2888 54.5802 36.6044 55.6142C37.0844 57.1123 36.7255 58.0104 36.2412 57.9008C35.7568 57.7913 35.5883 57.0247 35.5883 57.0247C35.4195 58.0279 34.8057 57.1956 34.8057 57.1956C34.8057 57.5153 33.2879 60.262 32.6738 59.6969C32.0599 59.1318 32.9203 57.7519 32.9203 57.7519H32.2935C31.1415 58.7224 29.9265 59.6138 28.657 60.4198C27.4925 61.1062 26.2175 61.5794 24.8909 61.8172C24.8909 61.8172 21.9593 63.92 18.2667 66.163C13.7093 68.9403 7.98444 71.9368 5.21282 71.4724C4.49017 71.3815 3.80719 71.0871 3.24156 70.6223C2.67593 70.1577 2.25031 69.5415 2.01313 68.8441C2.01498 68.8221 2.01498 68.8002 2.01313 68.7782C2.01313 68.7257 1.96557 68.6469 1.9353 68.5461C1.50291 67.1049 0.577597 60.9193 13.6098 57.4145L13.692 57.3928L23.0187 55.0622C24.9645 53.0513 29.2926 49.1394 30.0061 48.9291C30.7196 48.7188 40.4828 49.6212 40.3143 50.4361Z" fill="#FEBD9D"/>
<path d="M32.9377 57.7344C32.9377 57.7344 32.0729 59.1232 32.6912 59.6795C33.3096 60.236 34.8229 57.4892 34.8229 57.1782C34.8229 57.1782 35.437 58.0104 35.6055 57.0072C35.6055 57.0072 35.7742 57.7958 36.2584 57.9054C36.7427 58.0149 37.1016 57.1125 36.6173 55.6142C36.307 54.5804 35.8451 53.5998 35.2466 52.7053C35.0564 52.5126 33.2188 51.5094 33.2188 51.5094C33.2188 51.5094 36.5308 51.3166 37.5427 51.3779C38.5545 51.4393 40.163 51.2509 40.3315 50.4361C40.5003 49.6212 30.7455 48.7276 30.0277 48.9423C29.6689 49.0475 28.4063 50.0813 27.0009 51.3385" stroke="#F4A789" stroke-width="1.3023" stroke-linecap="round" stroke-linejoin="round"/>
<path d="M33.2188 51.5094L31.5585 50.8436" stroke="#F4A789" stroke-width="1.3023" stroke-linecap="round" stroke-linejoin="round"/>
<path d="M31.9909 53.0775C31.9909 53.0775 34.6414 54.2297 34.8229 54.6241C35.2029 55.3731 35.4668 56.1768 35.6057 57.0072" stroke="#F4A789" stroke-width="1.3023" stroke-linecap="round" stroke-linejoin="round"/>
<path d="M32.289 55.0622C32.289 55.0622 34.2564 56.2932 34.4942 56.5341C34.6562 56.7253 34.769 56.9541 34.8229 57.1999" stroke="#F4A789" stroke-width="1.3023" stroke-linecap="round" stroke-linejoin="round"/>
</g>
<defs>
<clipPath id="clip0_5_57">
<rect width="64" height="79" fill="white"/>
</clipPath>
</defs>
</svg>
